PathFileType  4	(X/Y/Z) E:\AxonAIRepo\axonai_vps\Data\session_74dd741a74\MarkerData\OpenPose_default\PreAugmentation
DataRate	CameraRate	NumFrames	NumMarkers	Units	OrigDataRate	OrigDataStartFrame	OrigNumFrames
60.0	60.0	17	20	m	60.0	50	398
Frame#	Time	Neck			RShoulder			RElbow			RWrist			LShoulder			LElbow			LWrist			midHip			RHip			RKnee			RAnkle			LHip			LKnee			LAnkle			LBigToe			LSmallToe			LHeel			RBigToe			RSmallToe			RHeel			
		X1	Y1	Z1	X2	Y2	Z2	X3	Y3	Z3	X4	Y4	Z4	X5	Y5	Z5	X6	Y6	Z6	X7	Y7	Z7	X8	Y8	Z8	X9	Y9	Z9	X10	Y10	Z10	X11	Y11	Z11	X12	Y12	Z12	X13	Y13	Z13	X14	Y14	Z14	X15	Y15	Z15	X16	Y16	Z16	X17	Y17	Z17	X18	Y18	Z18	X19	Y19	Z19	X20	Y20	Z20	

50	0.8166667	-3.3006300	1.5132400	0.1464200	-3.3278700	1.5114300	0.3255800	-3.6396400	1.2261100	0.4316300	-3.1079700	1.0196600	0.3282400	-3.3721000	1.5306700	-0.0339200	-3.4575500	1.2151200	-0.1272100	-3.6065000	0.9896500	-0.1111200	-3.2941800	0.9881700	0.1474200	-3.5480400	0.9817800	0.2546400	-3.3439700	0.5363000	0.2716400	-3.3535900	0.1456900	0.3545700	-3.5286400	0.9744600	0.0535100	-3.5557200	0.5119100	0.0817600	-3.2740000	0.1799500	0.1200000	-3.3402200	0.0947400	0.1113000	-3.5176400	0.0762200	0.0489900	-3.4063300	0.1321700	0.1650600	-3.2726600	0.0780900	0.3285000	-3.4800400	0.0761200	0.3914300	-3.3993200	0.1156900	0.3341900
51	0.8333333	-3.2989300	1.5129100	0.1466400	-3.3173500	1.5106900	0.3239000	-3.6176600	1.2305000	0.4333000	-3.1462800	1.0174100	0.3356500	-3.3725600	1.5305000	-0.0338500	-3.4186100	1.2160200	-0.1311000	-3.5765500	0.9988500	-0.1155100	-3.2989100	0.9889100	0.1468800	-3.5577300	0.9811600	0.2540600	-3.3254800	0.5360800	0.2722300	-3.3541100	0.1461200	0.3545700	-3.5122400	0.9801600	0.0509100	-3.5544200	0.5153000	0.0818700	-3.2885200	0.1771600	0.1223700	-3.2941300	0.1045600	0.1146300	-3.5164900	0.0749300	0.0492300	-3.4032600	0.1319300	0.1646100	-3.2520000	0.0809400	0.3250300	-3.4652400	0.0735200	0.3909300	-3.4223700	0.1132700	0.3327400
52	0.8500000	-3.2968900	1.5123100	0.1469100	-3.3273100	1.5106200	0.3262600	-3.5861800	1.2360600	0.4355800	-3.1987700	1.0158300	0.3461300	-3.3723200	1.5287800	-0.0336100	-3.3943100	1.2185700	-0.1336300	-3.5432000	1.0066600	-0.1179700	-3.2963400	0.9887700	0.1470600	-3.5471600	0.9819000	0.2543600	-3.3082000	0.5374800	0.2734300	-3.3549100	0.1462100	0.3545800	-3.5066700	0.9853000	0.0499500	-3.5562900	0.5218400	0.0819800	-3.3291900	0.1706500	0.1216100	-3.2880900	0.1062600	0.1145100	-3.5161200	0.0743600	0.0493200	-3.4105100	0.1318900	0.1653800	-3.2358500	0.0836600	0.3221400	-3.4616200	0.0712800	0.3906700	-3.4626600	0.1050200	0.3306400
53	0.8666667	-3.3029000	1.5128600	0.1464200	-3.3467500	1.5116700	0.3298800	-3.5682200	1.2423100	0.4372100	-3.2774100	1.0144800	0.3618100	-3.3710200	1.5280700	-0.0333600	-3.3640600	1.2213100	-0.1369400	-3.5143300	1.0101300	-0.1208800	-3.2947500	0.9886800	0.1472800	-3.5247000	0.9831100	0.2572100	-3.2962000	0.5417600	0.2749600	-3.3558600	0.1465200	0.3546000	-3.5139400	0.9882300	0.0510900	-3.5604200	0.5259900	0.0820600	-3.3732900	0.1635100	0.1213700	-3.3197400	0.1010200	0.1114800	-3.5162300	0.0742700	0.0492800	-3.4374000	0.1279000	0.1693900	-3.2204600	0.0858300	0.3192700	-3.4706700	0.0673000	0.3909800	-3.4929300	0.0984500	0.3291700
54	0.8833333	-3.3265800	1.5144200	0.1443200	-3.3587500	1.5124400	0.3298100	-3.5683300	1.2484400	0.4377600	-3.3619900	1.0157500	0.3783700	-3.3762200	1.5295600	-0.0340900	-3.3186000	1.2240200	-0.1438200	-3.4745500	1.0106800	-0.1253500	-3.2950200	0.9887900	0.1473900	-3.5091300	0.9864700	0.2635500	-3.2952400	0.5458100	0.2756600	-3.3561100	0.1462300	0.3546500	-3.5328000	0.9893400	0.0537500	-3.5608700	0.5254300	0.0820400	-3.3990200	0.1597300	0.1227300	-3.3484800	0.0961000	0.1088900	-3.5172500	0.0753900	0.0490800	-3.4755200	0.1220600	0.1752600	-3.2143300	0.0886300	0.3175900	-3.4832500	0.0653700	0.3914000	-3.4997500	0.1009500	0.3286100
55	0.9000000	-3.3605900	1.5169400	0.1412000	-3.3555300	1.5128200	0.3244300	-3.5657400	1.2586000	0.4380300	-3.4188000	1.0197500	0.3893700	-3.3991500	1.5320100	-0.0369600	-3.2815800	1.2297800	-0.1540100	-3.4241900	1.0148600	-0.1305600	-3.2955200	0.9883400	0.1474500	-3.5141700	0.9896900	0.2708300	-3.3059400	0.5460000	0.2751100	-3.3563300	0.1463500	0.3547100	-3.5524100	0.9857300	0.0562500	-3.5558800	0.5223300	0.0819500	-3.3950400	0.1600000	0.1246100	-3.3535600	0.0959000	0.1084400	-3.5175100	0.0754000	0.0490300	-3.4929800	0.1183700	0.1782000	-3.2226100	0.0860100	0.3192700	-3.4905600	0.0655700	0.3917700	-3.4852400	0.1084100	0.3290700
56	0.9166667	-3.3840800	1.5186400	0.1389900	-3.3327700	1.5122300	0.3174700	-3.5354200	1.2680100	0.4395100	-3.4433700	1.0244100	0.3958100	-3.4345200	1.5320600	-0.0411100	-3.2660600	1.2383000	-0.1642800	-3.3807500	1.0224100	-0.1348200	-3.2958300	0.9885800	0.1474500	-3.5288700	0.9924500	0.2751300	-3.3248200	0.5430800	0.2738000	-3.3560700	0.1459000	0.3548200	-3.5622900	0.9807800	0.0571500	-3.5521000	0.5179000	0.0818700	-3.3656000	0.1644800	0.1271400	-3.3513000	0.0955000	0.1088300	-3.5172800	0.0750400	0.0490500	-3.4716000	0.1211800	0.1751000	-3.2362200	0.0824200	0.3220400	-3.4926400	0.0655400	0.3921100	-3.4530400	0.1162600	0.3306100
57	0.9333333	-3.3894200	1.5193400	0.1384200	-3.2990700	1.5104400	0.3139100	-3.4810400	1.2767900	0.4418500	-3.4459600	1.0283300	0.4021400	-3.4603700	1.5308800	-0.0440300	-3.2554200	1.2499300	-0.1715200	-3.3659200	1.0286800	-0.1378700	-3.2961600	0.9884300	0.1474700	-3.5367500	0.9931000	0.2760400	-3.3370500	0.5422200	0.2731200	-3.3560200	0.1458300	0.3549000	-3.5642400	0.9777100	0.0569700	-3.5545300	0.5139900	0.0818300	-3.3351600	0.1689700	0.1295800	-3.3657500	0.0907800	0.1078800	-3.5181200	0.0763300	0.0489000	-3.4314000	0.1272000	0.1689400	-3.2493700	0.0790000	0.3246300	-3.4910800	0.0651700	0.3920300	-3.4136000	0.1241600	0.3323600
58	0.9500000	-3.3865700	1.5191300	0.1386300	-3.2752300	1.5091600	0.3140300	-3.4365900	1.2834000	0.4437500	-3.4395100	1.0336900	0.4090500	-3.4659900	1.5311300	-0.0447500	-3.2415000	1.2590700	-0.1744800	-3.3862300	1.0314500	-0.1412300	-3.2966100	0.9880200	0.1475300	-3.5379900	0.9925400	0.2758200	-3.3310100	0.5450600	0.2741500	-3.3556600	0.1461100	0.3548300	-3.5643300	0.9771600	0.0567300	-3.5616800	0.5129300	0.0819100	-3.3350000	0.1688900	0.1295200	-3.3983100	0.0823600	0.1051400	-3.5186000	0.0761900	0.0488800	-3.4113000	0.1300000	0.1658100	-3.2746000	0.0732800	0.3292900	-3.4844500	0.0609000	0.3918000	-3.3857000	0.1281300	0.3334400
59	0.9666667	-3.3843700	1.5189900	0.1388100	-3.2692300	1.5093100	0.3149200	-3.4177000	1.2885200	0.4446900	-3.4506700	1.0431700	0.4163900	-3.4610200	1.5334300	-0.0444500	-3.2333200	1.2630300	-0.1746300	-3.4207100	1.0311900	-0.1451900	-3.2962200	0.9895400	0.1475400	-3.5366900	0.9923100	0.2755700	-3.3177500	0.5518200	0.2757500	-3.3537400	0.1463700	0.3544600	-3.5640000	0.9778500	0.0567200	-3.5683000	0.5164600	0.0820800	-3.3639400	0.1644100	0.1269700	-3.4178200	0.0827600	0.1029500	-3.5196000	0.0761800	0.0488600	-3.4283500	0.1278300	0.1686300	-3.3099200	0.0676900	0.3356900	-3.4785400	0.0602500	0.3913900	-3.3891600	0.1277800	0.3343300
60	0.9833333	-3.3841100	1.5192100	0.1388400	-3.2718300	1.5097200	0.3152000	-3.4069300	1.2912100	0.4453300	-3.4857900	1.0561900	0.4238100	-3.4569900	1.5360300	-0.0442000	-3.2339800	1.2665300	-0.1742500	-3.4424700	1.0331100	-0.1478900	-3.2937000	0.9926300	0.1475400	-3.5290300	0.9937800	0.2742500	-3.3074600	0.5591500	0.2765700	-3.3520300	0.1471600	0.3540300	-3.5611700	0.9797400	0.0569400	-3.5693900	0.5236000	0.0821700	-3.3906100	0.1599100	0.1246600	-3.3811600	0.0930900	0.1059000	-3.5197900	0.0761400	0.0489400	-3.4629200	0.1250100	0.1747200	-3.3184600	0.0642800	0.3390200	-3.4690400	0.0648000	0.3911400	-3.4302800	0.1210800	0.3368300
61	1.0000000	-3.3845400	1.5190700	0.1388700	-3.2741000	1.5096000	0.3151600	-3.3882000	1.2923700	0.4458200	-3.5103400	1.0695300	0.4291500	-3.4564400	1.5369500	-0.0441300	-3.2419200	1.2716300	-0.1739500	-3.4472500	1.0372900	-0.1483100	-3.2910400	0.9964900	0.1474700	-3.5147400	0.9975300	0.2714800	-3.3034100	0.5656000	0.2766600	-3.3578900	0.1462500	0.3551000	-3.5566900	0.9823100	0.0572100	-3.5658400	0.5298500	0.0822400	-3.3989500	0.1589900	0.1239400	-3.3131200	0.1066000	0.1121300	-3.5190100	0.0763500	0.0490200	-3.4864600	0.1258300	0.1792400	-3.2784300	0.0714900	0.3342200	-3.4552400	0.0753500	0.3907900	-3.4913400	0.1106000	0.3405500
62	1.0166667	-3.3853800	1.5191200	0.1388900	-3.2742400	1.5090700	0.3151600	-3.3552000	1.2901200	0.4463200	-3.4950600	1.0792000	0.4318000	-3.4574100	1.5368200	-0.0440900	-3.2607400	1.2797300	-0.1731300	-3.4466400	1.0412400	-0.1478500	-3.2912000	0.9969700	0.1474100	-3.5093300	1.0022900	0.2700100	-3.3159800	0.5681200	0.2763000	-3.3808900	0.1424700	0.3594000	-3.5614300	0.9840000	0.0566400	-3.5639900	0.5320500	0.0822600	-3.3969400	0.1596400	0.1240500	-3.2912300	0.1102300	0.1145700	-3.5184600	0.0767200	0.0489800	-3.4909700	0.1275300	0.1802700	-3.2150600	0.0840700	0.3225800	-3.4428000	0.0824500	0.3905200	-3.5336700	0.1031700	0.3429700
63	1.0333333	-3.3876400	1.5192400	0.1387500	-3.2733000	1.5088800	0.3151900	-3.3144700	1.2845000	0.4487900	-3.4566900	1.0885700	0.4331100	-3.4589000	1.5361900	-0.0440800	-3.2877500	1.2849400	-0.1713300	-3.4400200	1.0451900	-0.1486500	-3.2942900	0.9938500	0.1474100	-3.5229800	1.0057500	0.2719300	-3.3536500	0.5659200	0.2750200	-3.4144300	0.1373700	0.3656300	-3.5872000	0.9827700	0.0542000	-3.5666800	0.5291900	0.0822100	-3.3947800	0.1600800	0.1241300	-3.3493200	0.0983800	0.1097600	-3.5185900	0.0761600	0.0488800	-3.4826300	0.1271400	0.1783200	-3.1804000	0.0904600	0.3102800	-3.4414100	0.0822800	0.3902700	-3.5359100	0.1036900	0.3436700
64	1.0500000	-3.3902300	1.5192000	0.1385600	-3.2722800	1.5085500	0.3152200	-3.2868900	1.2810600	0.4553700	-3.4313200	1.0956100	0.4338500	-3.4616500	1.5359800	-0.0443000	-3.3017300	1.2887300	-0.1706100	-3.4172500	1.0491200	-0.1516700	-3.2972900	0.9907900	0.1474300	-3.5413500	1.0063600	0.2750000	-3.3979800	0.5602000	0.2729400	-3.4377800	0.1338900	0.3699600	-3.6260700	0.9795400	0.0505000	-3.5708100	0.5243300	0.0821900	-3.3945900	0.1599200	0.1240700	-3.4411400	0.0783800	0.1000100	-3.5190800	0.0747400	0.0487900	-3.4672800	0.1244300	0.1749500	-3.1932100	0.0870600	0.3026600	-3.4505900	0.0755100	0.3901800	-3.5121900	0.1080200	0.3458800
65	1.0666667	-3.3845500	1.5190000	0.1390600	-3.2715600	1.5086500	0.3152400	-3.2831600	1.2805100	0.4642100	-3.4325600	1.0979700	0.4343000	-3.4643900	1.5361600	-0.0446100	-3.2897900	1.2905900	-0.1721900	-3.3907800	1.0524600	-0.1549100	-3.2983300	0.9899000	0.1474500	-3.5496400	1.0051000	0.2764200	-3.4194700	0.5544400	0.2711200	-3.4431100	0.1330200	0.3709800	-3.6535600	0.9771900	0.0478200	-3.5721100	0.5227700	0.0822200	-3.3952400	0.1596400	0.1240000	-3.4946300	0.0682900	0.0892700	-3.5207600	0.0753300	0.0485200	-3.4608400	0.1218400	0.1731400	-3.2243200	0.0801100	0.3005700	-3.4631000	0.0686700	0.3901800	-3.4963500	0.1107900	0.3520300
66	1.0833333	-3.3607700	1.5173400	0.1412000	-3.2716800	1.5081400	0.3153100	-3.2981800	1.2806900	0.4700500	-3.4504500	1.0995500	0.4360700	-3.4584000	1.5358200	-0.0438900	-3.2765500	1.2906600	-0.1735200	-3.3909700	1.0532200	-0.1548600	-3.2983000	0.9899900	0.1474900	-3.5507600	1.0030900	0.2764300	-3.4156600	0.5495900	0.2703400	-3.4405000	0.1331800	0.3706000	-3.6535300	0.9771200	0.0478500	-3.5709300	0.5250700	0.0822500	-3.3957700	0.1594100	0.1240200	-3.4790200	0.0743600	0.0820700	-3.5218600	0.0761400	0.0483000	-3.4741200	0.1192500	0.1748500	-3.2436900	0.0778500	0.3015100	-3.4665500	0.0633000	0.3903800	-3.5062100	0.1083000	0.3600400
